<svg width="66" height="66" viewBox="0 0 66 66" fill="none" xmlns="http://www.w3.org/2000/svg">
<path d="M31.7568 17.4424C28.7353 17.7637 25.9599 19.6777 24.5517 22.4189C24.1757 23.1572 23.7997 24.21 23.6494 24.9893C23.5058 25.7207 23.5263 27.71 23.6835 28.4414C24.0595 30.1846 24.8456 31.6885 26.0351 32.9531C26.3359 33.2744 26.7665 33.6709 26.9921 33.8418C27.4091 34.1494 27.4912 34.252 27.3271 34.252C27.1357 34.252 25.5497 35.0928 24.7841 35.6055C20.6894 38.3262 18.29 42.5371 18.0097 47.4863C17.9413 48.6826 18.1191 49.1133 18.8027 49.4688C19.1445 49.6396 19.7871 49.6328 20.1357 49.4482C20.7099 49.1475 20.9218 48.71 20.9218 47.8486C20.9218 47.1309 21.0927 45.8936 21.291 45.1143C21.8037 43.1455 22.788 41.3613 24.1757 39.8643C25.2216 38.75 26.3222 37.9365 27.7236 37.2598C30.5878 35.8721 33.7871 35.6602 36.8154 36.6582C37.3896 36.8428 38.6201 37.4102 39.413 37.8545C39.8915 38.1211 40.4658 38.1211 40.8691 37.8545C41.2861 37.5811 41.5185 37.1914 41.5527 36.7129C41.5937 36.1865 41.4843 35.8926 41.1357 35.5713C40.8281 35.291 39.5361 34.6006 38.7158 34.2861L38.2304 34.1016L38.6132 33.7734C39.1738 33.3086 39.9257 32.4951 40.3359 31.9141C41.0537 30.8955 41.6552 29.4531 41.874 28.2022C42.0107 27.4092 42.0107 25.9736 41.874 25.1123C41.4296 22.3369 39.5771 19.7871 37.0615 18.4746C36.2206 18.0371 35.8173 17.8799 35.0107 17.6748C33.8828 17.3945 32.8984 17.3262 31.7568 17.4424ZM34.3408 20.5049C34.9492 20.6621 35.8652 21.0791 36.3505 21.4072C38.2646 22.7197 39.3378 25.1123 39.0371 27.416C38.7021 30.0137 36.9521 32.0303 34.4091 32.7617C33.6982 32.9668 31.9345 32.9873 31.2578 32.7959C30.041 32.4609 29.0019 31.8662 28.2294 31.0596C27.0331 29.8154 26.4521 28.3936 26.4521 26.6982C26.4521 25.4473 26.6435 24.668 27.2177 23.5947C28.0585 22.0361 29.5419 20.8945 31.2783 20.4912C32.0234 20.3135 32.0507 20.3135 32.9531 20.3408C33.5273 20.3545 33.9853 20.4092 34.3408 20.5049Z" fill="#FFC947"/>
<path d="M42.6943 37.8887C42.332 38.0186 42.0312 38.292 41.8672 38.6543C41.71 38.9893 41.7031 39.0645 41.7031 40.5889V42.1748L40.042 42.1953C38.415 42.2158 38.374 42.2227 38.0459 42.3936C37.2324 42.8105 37.0205 43.9385 37.6221 44.6221C38.0322 45.0869 38.1826 45.1211 40.0488 45.1211H41.7031V46.6865C41.7031 48.334 41.7305 48.5391 42.0312 48.9424C42.5371 49.6191 43.8769 49.5918 44.3486 48.8877C44.6084 48.5049 44.6426 48.2246 44.6426 46.6387V45.1211H46.2012C47.124 45.1211 47.8623 45.0869 48.0264 45.0459C48.1836 44.998 48.416 44.8545 48.5801 44.6836C49.3457 43.918 48.9971 42.5166 47.9785 42.2637C47.7803 42.2158 47.0762 42.1816 46.1533 42.1816H44.6494L44.6289 40.5205L44.6084 38.8662L44.417 38.5449C44.082 37.9707 43.2822 37.6699 42.6943 37.8887Z" fill="#FFC947"/>
<circle cx="33" cy="33" r="32" stroke="#FFC947" stroke-width="2" stroke-dasharray="4 4"/>
</svg>
