<svg width="36" height="42" viewBox="0 0 36 42" fill="none" xmlns="http://www.w3.org/2000/svg">
<rect width="36" height="42" fill="#FFC947"/>
<path d="M12.8571 6.5625C12.8571 4.38867 14.5848 2.625 16.7143 2.625H19.2857C21.4152 2.625 23.1429 4.38867 23.1429 6.5625V35.4375C23.1429 37.6113 21.4152 39.375 19.2857 39.375H16.7143C14.5848 39.375 12.8571 37.6113 12.8571 35.4375V6.5625ZM0 22.3125C0 20.1387 1.72768 18.375 3.85714 18.375H6.42857C8.55804 18.375 10.2857 20.1387 10.2857 22.3125V35.4375C10.2857 37.6113 8.55804 39.375 6.42857 39.375H3.85714C1.72768 39.375 0 37.6113 0 35.4375V22.3125ZM29.5714 7.875H32.1429C34.2723 7.875 36 9.63867 36 11.8125V35.4375C36 37.6113 34.2723 39.375 32.1429 39.375H29.5714C27.442 39.375 25.7143 37.6113 25.7143 35.4375V11.8125C25.7143 9.63867 27.442 7.875 29.5714 7.875Z" fill="#0F2C56"/>
</svg>
