<svg width="17" height="18" viewBox="0 0 17 18" fill="none" xmlns="http://www.w3.org/2000/svg">
<path d="M9.89081 -4.5219e-07C4.42542 -4.5219e-07 1.35053e-06 3.96315 1.35053e-06 8.8509C1.35053e-06 13.7386 4.42542 17.7018 9.89081 17.7018C12.5726 17.7018 15.0022 16.7456 16.7856 15.1967C17.0069 15.0031 17.0644 14.7028 16.9228 14.4578C16.7812 14.2128 16.4758 14.0745 16.1705 14.1219C15.7368 14.1891 15.2942 14.2247 14.8384 14.2247C10.5502 14.2247 7.07182 11.111 7.07182 7.27038C7.07182 4.67043 8.66497 2.40634 11.0237 1.21305C11.2937 1.07475 11.4309 0.798161 11.3645 0.529473C11.2981 0.260785 11.0414 0.059269 10.7316 0.0355612C10.4528 0.0158048 10.174 0.00395078 9.89081 0.00395078V-4.5219e-07Z" fill="#FCFCFC"/>
</svg>
