<svg width="36" height="23" viewBox="0 0 36 23" fill="none" xmlns="http://www.w3.org/2000/svg">
<rect width="36" height="23" rx="5" fill="#185ADB"/>
<path d="M14.5031 11.5C14.5 11.5844 14.5 11.6656 14.5 11.75V12.25C14.5 12.3344 14.5 12.4156 14.5031 12.5H14C13.4469 12.5 13 12.9469 13 13.5C13 14.0531 13.4469 14.5 14 14.5H14.8844C15.8094 17.1219 18.3125 19 21.25 19H22C22.5531 19 23 18.5531 23 18C23 17.4469 22.5531 17 22 17H21.25C19.4406 17 17.8688 15.9875 17.0656 14.5H21C21.5531 14.5 22 14.0531 22 13.5C22 12.9469 21.5531 12.5 21 12.5H16.5062C16.5031 12.4187 16.5 12.3344 16.5 12.25V11.75C16.5 11.6656 16.5031 11.5812 16.5062 11.5H21C21.5531 11.5 22 11.0531 22 10.5C22 9.94687 21.5531 9.5 21 9.5H17.0656C17.8688 8.0125 19.4406 7 21.25 7H22C22.5531 7 23 6.55313 23 6C23 5.44687 22.5531 5 22 5H21.25C18.3125 5 15.8094 6.87813 14.8844 9.5H14C13.4469 9.5 13 9.94687 13 10.5C13 11.0531 13.4469 11.5 14 11.5H14.5031Z" fill="#ECECEC"/>
</svg>
