<svg width="40" height="27" viewBox="0 0 40 27" fill="none" xmlns="http://www.w3.org/2000/svg">
<rect x="1" y="1" width="38" height="25" rx="6" fill="#185ADB" stroke="#FFC947" stroke-width="2"/>
<path d="M16.5031 13.5C16.5 13.5844 16.5 13.6656 16.5 13.75V14.25C16.5 14.3344 16.5 14.4156 16.5031 14.5H16C15.4469 14.5 15 14.9469 15 15.5C15 16.0531 15.4469 16.5 16 16.5H16.8844C17.8094 19.1219 20.3125 21 23.25 21H24C24.5531 21 25 20.5531 25 20C25 19.4469 24.5531 19 24 19H23.25C21.4406 19 19.8688 17.9875 19.0656 16.5H23C23.5531 16.5 24 16.0531 24 15.5C24 14.9469 23.5531 14.5 23 14.5H18.5062C18.5031 14.4187 18.5 14.3344 18.5 14.25V13.75C18.5 13.6656 18.5031 13.5812 18.5062 13.5H23C23.5531 13.5 24 13.0531 24 12.5C24 11.9469 23.5531 11.5 23 11.5H19.0656C19.8688 10.0125 21.4406 9 23.25 9H24C24.5531 9 25 8.55313 25 8C25 7.44687 24.5531 7 24 7H23.25C20.3125 7 17.8094 8.87813 16.8844 11.5H16C15.4469 11.5 15 11.9469 15 12.5C15 13.0531 15.4469 13.5 16 13.5H16.5031Z" fill="#ECECEC"/>
</svg>
