<svg width="18" height="18" viewBox="0 0 18 18" fill="none" xmlns="http://www.w3.org/2000/svg">
<g clip-path="url(#clip0_19_51)">
<path d="M3.09141 5.28672C3.24609 4.95859 3.57422 4.75 3.9375 4.75H14.0625C14.4258 4.75 14.7539 4.95859 14.9086 5.28672C15.0633 5.61484 15.0164 6.00156 14.7867 6.28281L10.5 11.5211V14.5C10.5 14.7836 10.3406 15.0437 10.0852 15.1703C9.82969 15.2969 9.52734 15.2711 9.3 15.1L7.8 13.975C7.61016 13.8344 7.5 13.6117 7.5 13.375V11.5211L3.21094 6.28047C2.98359 6.00156 2.93437 5.6125 3.09141 5.28672Z" fill="#0F2C56"/>
</g>
<path d="M17.5 9C17.5 13.6944 13.6944 17.5 9 17.5C4.30558 17.5 0.5 13.6944 0.5 9C0.5 4.30558 4.30558 0.5 9 0.5C13.6944 0.5 17.5 4.30558 17.5 9Z" stroke="#0F2C56"/>
<defs>
<clipPath id="clip0_19_51">
<rect width="12" height="12" fill="white" transform="translate(3 4)"/>
</clipPath>
</defs>
</svg>
