<svg width="36" height="23" viewBox="0 0 36 23" fill="none" xmlns="http://www.w3.org/2000/svg">
<rect width="36" height="23" rx="5" fill="#185ADB"/>
<path d="M14.8321 5.44579C14.5258 4.98648 13.907 4.86463 13.4445 5.17083C12.982 5.47703 12.8633 6.09569 13.1695 6.555L16.1321 11.0012H14.5008C13.9477 11.0012 13.5008 11.448 13.5008 12.0011C13.5008 12.5541 13.9477 13.0009 14.5008 13.0009H17.0009V14.0008H14.5008C13.9477 14.0008 13.5008 14.4476 13.5008 15.0006C13.5008 15.5536 13.9477 16.0005 14.5008 16.0005H17.0009V18.0002C17.0009 18.5532 17.4478 19 18.0009 19C18.554 19 19.0009 18.5532 19.0009 18.0002V16.0005H21.501C22.0541 16.0005 22.501 15.5536 22.501 15.0006C22.501 14.4476 22.0541 14.0008 21.501 14.0008H19.0009V13.0009H21.501C22.0541 13.0009 22.501 12.5541 22.501 12.0011C22.501 11.448 22.0541 11.0012 21.501 11.0012H19.8697L22.8323 6.555C23.1385 6.09569 23.0135 5.47391 22.5541 5.16771C22.0947 4.8615 21.4729 4.98648 21.1666 5.44579L18.0009 10.1982L14.8321 5.44579Z" fill="#ECECEC"/>
</svg>
