<svg width="40" height="27" viewBox="0 0 40 27" fill="none" xmlns="http://www.w3.org/2000/svg">
<rect x="1" y="1" width="38" height="25" rx="6" fill="#185ADB" stroke="#FFC947" stroke-width="2"/>
<path d="M16.8321 7.44579C16.5258 6.98648 15.907 6.86463 15.4445 7.17083C14.982 7.47703 14.8633 8.09569 15.1695 8.555L18.1321 13.0012H16.5008C15.9477 13.0012 15.5008 13.448 15.5008 14.0011C15.5008 14.5541 15.9477 15.0009 16.5008 15.0009H19.0009V16.0008H16.5008C15.9477 16.0008 15.5008 16.4476 15.5008 17.0006C15.5008 17.5536 15.9477 18.0005 16.5008 18.0005H19.0009V20.0002C19.0009 20.5532 19.4478 21 20.0009 21C20.554 21 21.0009 20.5532 21.0009 20.0002V18.0005H23.501C24.0541 18.0005 24.501 17.5536 24.501 17.0006C24.501 16.4476 24.0541 16.0008 23.501 16.0008H21.0009V15.0009H23.501C24.0541 15.0009 24.501 14.5541 24.501 14.0011C24.501 13.448 24.0541 13.0012 23.501 13.0012H21.8697L24.8323 8.555C25.1385 8.09569 25.0135 7.47391 24.5541 7.16771C24.0947 6.8615 23.4729 6.98648 23.1666 7.44579L20.0009 12.1982L16.8321 7.44579Z" fill="#ECECEC"/>
</svg>
