<svg width="20" height="21" viewBox="0 0 20 21" fill="none" xmlns="http://www.w3.org/2000/svg">
<rect width="19.6875" height="21" rx="2" fill="#185ADB"/>
<g clip-path="url(#clip0_668_26)">
<path d="M6.5816 15.4219H4.13262V7.7545H6.5816V15.4219ZM5.35579 6.70861C4.57269 6.70861 3.9375 6.07799 3.9375 5.31664C3.9375 4.95093 4.08693 4.60021 4.35291 4.34161C4.61889 4.08302 4.97964 3.93774 5.35579 3.93774C5.73195 3.93774 6.09269 4.08302 6.35867 4.34161C6.62466 4.60021 6.77408 4.95093 6.77408 5.31664C6.77408 6.07799 6.13863 6.70861 5.35579 6.70861ZM15.7474 15.4219H13.3037V11.6894C13.3037 10.7999 13.2852 9.65917 12.0304 9.65917C10.7571 9.65917 10.562 10.6256 10.562 11.6254V15.4219H8.11565V7.7545H10.4644V8.8004H10.4987C10.8257 8.19799 11.6243 7.56224 12.8159 7.56224C15.2944 7.56224 15.75 9.14904 15.75 11.2101V15.4219H15.7474Z" fill="#FCFCFC"/>
</g>
<defs>
<clipPath id="clip0_668_26">
<rect width="11.8125" height="13.125" fill="white" transform="translate(3.9375 3.9375)"/>
</clipPath>
</defs>
</svg>
