<svg width="40" height="27" viewBox="0 0 40 27" fill="none" xmlns="http://www.w3.org/2000/svg">
<rect x="1" y="1" width="38" height="25" rx="6" fill="#185ADB" stroke="#FFC947" stroke-width="2"/>
<path d="M16.2511 6C16.8502 6 17.3342 6.47879 17.3342 7.07143V8.25335L21.3687 7.11161C21.9441 6.94754 22.5431 7.27902 22.709 7.84821C22.8748 8.41741 22.5398 9.01004 21.9644 9.17411L17.3342 10.4833V11.4676L21.3687 10.3259C21.9441 10.1618 22.5431 10.4933 22.709 11.0625C22.8748 11.6317 22.5398 12.2243 21.9644 12.3884L17.3342 13.6975V18.8571H19.4936C21.8019 18.8571 23.7041 17.0658 23.8191 14.7857L23.8327 14.5179C23.8631 13.9252 24.3708 13.4732 24.9699 13.5C25.569 13.5268 26.0259 14.0324 25.9989 14.625L25.9853 14.8929C25.8127 18.3147 22.9561 21 19.4936 21H16.2511C15.652 21 15.168 20.5212 15.168 19.9286V14.3069L14.3828 14.5279C13.8074 14.692 13.2083 14.3605 13.0424 13.7913C12.8766 13.2221 13.2117 12.6295 13.7871 12.4654L15.168 12.0804V11.0926L14.3828 11.3136C13.8074 11.4777 13.2083 11.1462 13.0424 10.577C12.8766 10.0078 13.2117 9.41518 13.7871 9.25112L15.168 8.86607V7.07143C15.168 6.47879 15.652 6 16.2511 6Z" fill="#ECECEC"/>
</svg>
