<svg width="36" height="23" viewBox="0 0 36 23" fill="none" xmlns="http://www.w3.org/2000/svg">
<rect width="36" height="23" rx="5" fill="#185ADB"/>
<path d="M14.2511 4C14.8502 4 15.3342 4.47879 15.3342 5.07143V6.25335L19.3687 5.11161C19.9441 4.94754 20.5431 5.27902 20.709 5.84821C20.8748 6.41741 20.5398 7.01004 19.9644 7.17411L15.3342 8.48326V9.46763L19.3687 8.32589C19.9441 8.16183 20.5431 8.4933 20.709 9.0625C20.8748 9.6317 20.5398 10.2243 19.9644 10.3884L15.3342 11.6975V16.8571H17.4936C19.8019 16.8571 21.7041 15.0658 21.8191 12.7857L21.8327 12.5179C21.8631 11.9252 22.3708 11.4732 22.9699 11.5C23.569 11.5268 24.0259 12.0324 23.9989 12.625L23.9853 12.8929C23.8127 16.3147 20.9561 19 17.4936 19H14.2511C13.652 19 13.168 18.5212 13.168 17.9286V12.3069L12.3828 12.5279C11.8074 12.692 11.2083 12.3605 11.0424 11.7913C10.8766 11.2221 11.2117 10.6295 11.7871 10.4654L13.168 10.0804V9.09263L12.3828 9.31362C11.8074 9.47768 11.2083 9.14621 11.0424 8.57701C10.8766 8.00781 11.2117 7.41518 11.7871 7.25112L13.168 6.86607V5.07143C13.168 4.47879 13.652 4 14.2511 4Z" fill="#ECECEC"/>
</svg>
