<svg width="34" height="32" viewBox="0 0 34 32" fill="none" xmlns="http://www.w3.org/2000/svg">
<g clip-path="url(#clip0_27_272)">
<rect width="34" height="32" fill="#FFC947"/>
<path d="M31.2574 0.5875C31.4566 0.78125 31.6094 1 31.7156 1.23125C31.8219 1.4625 31.875 1.71875 31.875 1.99375V2V8C31.875 9.10625 30.9254 10 29.75 10C28.5746 10 27.625 9.10625 27.625 8V6.83125L20.6258 13.4125C19.8422 14.15 18.5805 14.2 17.7371 13.5188L11.6875 8.63125L5.63125 13.5188C4.74141 14.2375 3.4 14.1375 2.63633 13.3C1.87266 12.4625 1.97891 11.2 2.86875 10.4812L10.3062 4.48125C11.1031 3.8375 12.2785 3.8375 13.0754 4.48125L19.0187 9.275L24.6168 4H23.375C22.1996 4 21.25 3.10625 21.25 2C21.25 0.89375 22.1996 0 23.375 0H29.75C30.3344 0 30.8656 0.225 31.2508 0.58125L31.2574 0.5875ZM0 19C0 17.3438 1.42773 16 3.1875 16H30.8125C32.5723 16 34 17.3438 34 19V29C34 30.6562 32.5723 32 30.8125 32H3.1875C1.42773 32 0 30.6562 0 29V19ZM3.1875 26V29H6.375C6.375 27.3438 4.94727 26 3.1875 26ZM6.375 19H3.1875V22C4.94727 22 6.375 20.6562 6.375 19ZM30.8125 26C29.0527 26 27.625 27.3438 27.625 29H30.8125V26ZM27.625 19C27.625 20.6562 29.0527 22 30.8125 22V19H27.625ZM21.25 24C21.25 21.7938 19.3441 20 17 20C14.6559 20 12.75 21.7938 12.75 24C12.75 26.2062 14.6559 28 17 28C19.3441 28 21.25 26.2062 21.25 24Z" fill="#0F2C56"/>
</g>
<defs>
<clipPath id="clip0_27_272">
<rect width="34" height="32" fill="white"/>
</clipPath>
</defs>
</svg>
