<svg width="23" height="19" viewBox="0 0 23 19" fill="none" xmlns="http://www.w3.org/2000/svg">
<path d="M20.8438 0.875C22.0342 0.875 23 1.84082 23 3.03125C23 3.70957 22.6811 4.34746 22.1375 4.75625L12.3625 12.0875C11.8504 12.4693 11.1496 12.4693 10.6375 12.0875L0.862501 4.75625C0.318945 4.34746 0 3.70957 0 3.03125C0 1.84082 0.96582 0.875 2.15625 0.875H20.8438ZM23 5.90625V15.25C23 16.8357 21.7107 18.125 20.125 18.125H2.875C1.28926 18.125 0 16.8357 0 15.25V5.90625L9.775 13.2375C10.7992 14.0057 12.2008 14.0057 13.225 13.2375L23 5.90625Z" fill="#FCFCFC"/>
</svg>
