<svg width="24" height="32" viewBox="0 0 24 32" fill="none" xmlns="http://www.w3.org/2000/svg">
<path d="M19.8358 2.78797C20.2045 1.93175 19.9295 0.931783 19.1734 0.381802C18.4174 -0.168179 17.3863 -0.11818 16.6802 0.494298L0.683693 14.4938C0.0588281 15.0438 -0.166123 15.925 0.127563 16.7C0.42125 17.4749 1.17109 17.9999 2.00216 17.9999H8.9694L4.16419 29.212C3.79552 30.0683 4.07046 31.0682 4.82655 31.6182C5.58263 32.1682 6.61366 32.1182 7.31976 31.5057L23.3163 17.5062C23.9412 16.9562 24.1661 16.075 23.8724 15.3C23.5787 14.5251 22.8352 14.0063 21.9978 14.0063H15.0306L19.8358 2.78797Z" fill="#0F2C56"/>
</svg>
