<svg width="27" height="27" viewBox="0 0 27 27" fill="none" xmlns="http://www.w3.org/2000/svg">
<g clip-path="url(#clip0_276_19)">
<path d="M21.6082 8.40117C22.129 7.9373 22.129 7.18398 21.6082 6.72012C21.0873 6.25625 20.2415 6.25625 19.7207 6.72012L6.38733 18.5951C5.8665 19.059 5.8665 19.8123 6.38733 20.2762C6.90816 20.74 7.754 20.74 8.27483 20.2762L21.6082 8.40117ZM11.3332 8.75C11.3332 7.44004 10.1373 6.375 8.6665 6.375C7.19566 6.375 5.99983 7.44004 5.99983 8.75C5.99983 10.06 7.19566 11.125 8.6665 11.125C10.1373 11.125 11.3332 10.06 11.3332 8.75ZM21.9998 18.25C21.9998 16.94 20.804 15.875 19.3332 15.875C17.8623 15.875 16.6665 16.94 16.6665 18.25C16.6665 19.56 17.8623 20.625 19.3332 20.625C20.804 20.625 21.9998 19.56 21.9998 18.25Z" fill="#0F2C56"/>
</g>
<circle cx="13.5" cy="13.5" r="12.5" stroke="#0F2C56" stroke-width="2"/>
<defs>
<clipPath id="clip0_276_19">
<rect width="16" height="19" fill="white" transform="translate(6 4)"/>
</clipPath>
</defs>
</svg>
