<svg width="31" height="31" viewBox="0 0 31 31" fill="none" xmlns="http://www.w3.org/2000/svg">
<g clip-path="url(#clip0_573_2)">
<path d="M23.6082 10.4012C24.129 9.93731 24.129 9.18399 23.6082 8.72012C23.0873 8.25626 22.2415 8.25626 21.7207 8.72012L8.38733 20.5951C7.8665 21.059 7.8665 21.8123 8.38733 22.2762C8.90816 22.74 9.754 22.74 10.2748 22.2762L23.6082 10.4012ZM13.3332 10.75C13.3332 9.44005 12.1373 8.37501 10.6665 8.37501C9.19566 8.37501 7.99983 9.44005 7.99983 10.75C7.99983 12.06 9.19566 13.125 10.6665 13.125C12.1373 13.125 13.3332 12.06 13.3332 10.75ZM23.9998 20.25C23.9998 18.94 22.804 17.875 21.3332 17.875C19.8623 17.875 18.6665 18.94 18.6665 20.25C18.6665 21.56 19.8623 22.625 21.3332 22.625C22.804 22.625 23.9998 21.56 23.9998 20.25Z" fill="#0F2C56"/>
</g>
<circle cx="15.5" cy="15.5" r="14.5" stroke="#0F2C56" stroke-width="2"/>
<defs>
<clipPath id="clip0_573_2">
<rect width="16" height="19" fill="white" transform="translate(8 6)"/>
</clipPath>
</defs>
</svg>
