<svg width="40" height="27" viewBox="0 0 40 27" fill="none" xmlns="http://www.w3.org/2000/svg">
<rect x="1" y="1" width="38" height="25" rx="6" fill="#185ADB" stroke="#FFC947" stroke-width="2"/>
<path d="M18.4983 11.0125C18.4983 9.90312 19.3979 9 20.5099 9C20.7254 9 20.9409 9.03438 21.1471 9.10313L23.6834 9.95C24.2081 10.125 24.7735 9.84063 24.9484 9.31875C25.1233 8.79687 24.8391 8.22812 24.3174 8.05312L21.778 7.20625C21.3688 7.06875 20.9409 7 20.5099 7C18.2953 7 16.4993 8.79687 16.4993 11.0125V13H15.9995C15.4467 13 15 13.4469 15 14C15 14.5531 15.4467 15 15.9995 15H16.4993V16.3906C16.4993 16.9344 16.3525 17.4687 16.0714 17.9344L15.1437 19.4844C14.9594 19.7938 14.9531 20.1781 15.1312 20.4906C15.3092 20.8031 15.6403 21 15.9995 21H23.9957C24.5486 21 24.9952 20.5531 24.9952 20C24.9952 19.4469 24.5486 19 23.9957 19H17.7643L17.7862 18.9656C18.2516 18.1875 18.4983 17.2969 18.4983 16.3906V15H21.9967C22.5495 15 22.9962 14.5531 22.9962 14C22.9962 13.4469 22.5495 13 21.9967 13H18.4983V11.0125Z" fill="#ECECEC"/>
</svg>
