<svg width="36" height="23" viewBox="0 0 36 23" fill="none" xmlns="http://www.w3.org/2000/svg">
<rect width="36" height="23" rx="5" fill="#185ADB"/>
<path d="M16.4983 9.0125C16.4983 7.90312 17.3979 7 18.5099 7C18.7254 7 18.9409 7.03438 19.1471 7.10313L21.6834 7.95C22.2081 8.125 22.7735 7.84063 22.9484 7.31875C23.1233 6.79687 22.8391 6.22812 22.3174 6.05312L19.778 5.20625C19.3688 5.06875 18.9409 5 18.5099 5C16.2953 5 14.4993 6.79687 14.4993 9.0125V11H13.9995C13.4467 11 13 11.4469 13 12C13 12.5531 13.4467 13 13.9995 13H14.4993V14.3906C14.4993 14.9344 14.3525 15.4687 14.0714 15.9344L13.1437 17.4844C12.9594 17.7938 12.9531 18.1781 13.1312 18.4906C13.3092 18.8031 13.6403 19 13.9995 19H21.9957C22.5486 19 22.9952 18.5531 22.9952 18C22.9952 17.4469 22.5486 17 21.9957 17H15.7643L15.7862 16.9656C16.2516 16.1875 16.4983 15.2969 16.4983 14.3906V13H19.9967C20.5495 13 20.9962 12.5531 20.9962 12C20.9962 11.4469 20.5495 11 19.9967 11H16.4983V9.0125Z" fill="#ECECEC"/>
</svg>
