<svg width="20" height="21" viewBox="0 0 20 21" fill="none" xmlns="http://www.w3.org/2000/svg">
<rect width="19.6875" height="21" rx="2" fill="#185ADB"/>
<g clip-path="url(#clip0_668_25)">
<path d="M15.7133 7.82668C15.7217 7.94326 15.7217 8.05988 15.7217 8.17646C15.7217 11.7325 13.0151 15.8299 8.06821 15.8299C6.54417 15.8299 5.12841 15.3885 3.9375 14.6224C4.15404 14.6473 4.36222 14.6557 4.58709 14.6557C5.8446 14.6557 7.00221 14.231 7.92663 13.5064C6.74405 13.4814 5.75301 12.7069 5.41155 11.6409C5.57813 11.6659 5.74467 11.6826 5.91958 11.6826C6.16109 11.6826 6.40262 11.6492 6.62746 11.591C5.39491 11.3411 4.47047 10.2585 4.47047 8.95097V8.91767C4.82856 9.11754 5.245 9.24246 5.68636 9.2591C4.96181 8.77606 4.48714 7.9516 4.48714 7.01885C4.48714 6.51918 4.62036 6.06113 4.85356 5.66139C6.17772 7.29368 8.16813 8.35965 10.4 8.47626C10.3584 8.27639 10.3334 8.06821 10.3334 7.86C10.3334 6.3776 11.5326 5.17004 13.0234 5.17004C13.7979 5.17004 14.4974 5.49484 14.9888 6.0195C15.5967 5.90292 16.1797 5.67805 16.696 5.36992C16.4961 5.99454 16.0714 6.5192 15.5134 6.8523C16.0548 6.79403 16.5794 6.64409 17.0624 6.43591C16.6961 6.96889 16.238 7.44357 15.7133 7.82668Z" fill="#FCFCFC"/>
</g>
<defs>
<clipPath id="clip0_668_25">
<rect width="13.125" height="13.125" fill="white" transform="translate(3.9375 3.9375)"/>
</clipPath>
</defs>
</svg>
