<svg width="31" height="32" viewBox="0 0 31 32" fill="none" xmlns="http://www.w3.org/2000/svg">
<path d="M30.9892 15.9688C30.9892 17.0938 30.1819 17.975 29.267 17.975H27.5448L27.5825 27.9875C27.5825 28.1562 27.5717 28.325 27.5556 28.4937V29.5C27.5556 30.8813 26.5922 32 25.4028 32H24.5417C24.4825 32 24.4233 32 24.3641 31.9937C24.2887 32 24.2134 32 24.138 32H22.3889H21.0972C19.9078 32 18.9444 30.8813 18.9444 29.5V28V24C18.9444 22.8937 18.1748 22 17.2222 22H13.7778C12.8252 22 12.0556 22.8937 12.0556 24V28V29.5C12.0556 30.8813 11.0922 32 9.90278 32H8.61111H6.89427C6.81354 32 6.73281 31.9937 6.65208 31.9875C6.5875 31.9937 6.52292 32 6.45833 32H5.59722C4.40781 32 3.44444 30.8813 3.44444 29.5V22.5C3.44444 22.4438 3.44444 22.3813 3.44983 22.325V17.975H1.72222C0.753472 17.975 0 17.1 0 15.9688C0 15.4062 0.161458 14.9062 0.538194 14.4688L14.3375 0.5C14.7142 0.0625 15.1448 0 15.5215 0C15.8983 0 16.3288 0.125 16.6517 0.4375L30.3972 14.4688C30.8278 14.9062 31.0431 15.4062 30.9892 15.9688Z" fill="#185ADB"/>
</svg>
