<svg width="204" height="136" viewBox="0 0 204 136" fill="none" xmlns="http://www.w3.org/2000/svg">
<path d="M22.6667 0C10.1646 0 0 10.1646 0 22.6667V113.333C0 125.835 10.1646 136 22.6667 136H181.333C193.835 136 204 125.835 204 113.333V22.6667C204 10.1646 193.835 0 181.333 0H22.6667ZM96.3333 45.3333H175.667C178.783 45.3333 181.333 47.8833 181.333 51C181.333 54.1167 178.783 56.6667 175.667 56.6667H96.3333C93.2167 56.6667 90.6667 54.1167 90.6667 51C90.6667 47.8833 93.2167 45.3333 96.3333 45.3333ZM90.6667 85C90.6667 81.8833 93.2167 79.3333 96.3333 79.3333H175.667C178.783 79.3333 181.333 81.8833 181.333 85C181.333 88.1167 178.783 90.6667 175.667 90.6667H96.3333C93.2167 90.6667 90.6667 88.1167 90.6667 85ZM58.1188 34V36.2313C60.4563 36.6563 63.9979 37.3646 65.5563 37.7896C69.3458 38.7812 71.5771 42.6771 70.5854 46.4667C69.5937 50.2562 65.6979 52.4875 61.9083 51.4958C60.5625 51.1417 55.7458 50.1854 54.2229 49.9729C49.9021 49.3 46.3604 49.8667 44.0937 50.8937C41.8625 51.9208 41.2958 53.0896 41.1896 53.7625C40.9771 54.9667 41.1896 55.4271 41.225 55.5333C41.3312 55.7104 41.5792 56.1708 42.5 56.7729C44.6604 58.2604 48.0604 59.3229 53.0896 60.8104L53.3729 60.8812C57.6583 62.1917 63.3958 63.8917 67.6813 67.0437C70.0542 68.7792 72.2854 71.0812 73.6667 74.3042C75.0833 77.5271 75.3667 81.0688 74.7292 84.7167C73.5604 91.4458 69.0979 96.05 63.5375 98.4229C61.8021 99.1667 59.9958 99.6979 58.0833 100.052V102C58.0833 105.931 54.8958 109.119 50.9646 109.119C47.0333 109.119 43.8458 105.931 43.8458 102V99.7333C40.4812 98.9542 36.0896 97.4667 33.2917 96.5104C32.6896 96.2979 32.1583 96.1208 31.7333 95.9792C28.0146 94.7396 26.0312 90.7375 27.2354 87.0188C28.4396 83.3 32.4771 81.3167 36.1958 82.5208C36.9042 82.7687 37.6479 83.0167 38.4625 83.2646C41.8271 84.3979 45.6167 85.7083 47.7417 86.0625C52.275 86.7708 55.7813 86.3104 57.9417 85.3896C59.8896 84.575 60.5625 83.5125 60.775 82.2729C61.0229 80.8562 60.8104 80.1833 60.7042 79.9C60.5625 79.5812 60.2437 79.1208 59.3937 78.4833C57.3042 76.9604 53.975 75.8271 49.0167 74.3396L48.2375 74.0917C44.0937 72.8521 38.675 71.2229 34.5667 68.425C32.2292 66.8313 29.8917 64.6354 28.4396 61.5187C26.9521 58.3312 26.5979 54.8604 27.2354 51.2479C28.3687 44.7667 32.9729 40.3042 38.25 37.8958C40.0208 37.0812 41.8979 36.4792 43.8812 36.0896V33.9646C43.8812 30.0333 47.0687 26.8458 51 26.8458C54.9312 26.8458 58.1188 30.0333 58.1188 33.9646V34Z" fill="#185ADB"/>
</svg>
